<svg xmlns="http://www.w3.org/2000/svg" width="371.4622641509433" height="315.7311320754717" class="jsx-2263963463 artboard-inner">

 <g>
  <title>background</title>
  <rect fill="none" id="canvas_background" height="402" width="582" y="-1" x="-1"/>
 </g>
 <g>
  <title>Layer 1</title>
  <g stroke="null" id="svg_1" fill="#000" transform="translate(-190.4481201171875,76.41509246826172) scale(1.3102725744247437) ">
   <g stroke="null" id="line1">
    <path stroke="null" id="svg_2" d="m157.003201,119.523294l0,15.40566l3.011429,0l0,-4.929811l4.684444,4.313585l28.307428,0l6.223619,-5.730906l0,-8.503924l-30.047365,-32.598377l19.540825,0l6.156698,5.669283l0,6.655245l3.011429,0l0,-15.40566l-3.011429,0l0,4.929811l-4.684444,-4.313585l-26.299809,0l-6.223619,5.730906l0,8.503924l30.047365,32.598377l-21.548444,0l-6.156698,-5.669283l0,-6.655245l-3.011429,0z"/>
    <path stroke="null" id="svg_3" d="m243.36428,103.686275l-6.892825,-6.347132l-24.626793,0l-6.892825,6.347132l0,24.27932l6.892825,6.347132l24.626793,0l6.892825,-6.347132l0,-24.27932zm-22.351492,-3.882226l6.29054,0l0,32.043773l-6.29054,0l0,-32.043773z"/>
    <path stroke="null" id="svg_4" d="m290.576787,97.339143l-9.168127,0l-4.684444,4.313585l-4.751365,-4.313585l-16.328635,0l-6.223619,5.730906l0,21.814415l6.223619,5.730906l16.328635,0l3.21219,-2.957887l0,19.596l-11.041905,0l0,-9.859622l-15.057143,0l0,7.209849l5.554413,5.114679l29.712762,0l6.223619,-5.730906l0,-46.648339zm-15.391746,26.497735l-4.684444,4.313585l-6.022857,0l0,-28.346415l6.022857,0l4.684444,4.313585l0,19.719245z"/>
    <path stroke="null" id="svg_5" d="m331.766438,101.837596l-4.885206,-4.498453l-8.632762,0l-4.684444,4.313585l-4.751365,-4.313585l-14.521778,0l0,2.464906l5.353651,0l0,28.777773l6.223619,5.730906l14.521778,0l0,-2.464906l-5.353651,0l0,-27.730188l4.684444,-4.313585l5.688254,0l4.282921,3.943849l2.07454,-1.910302z"/>
    <path stroke="null" id="svg_6" d="m340.365739,134.312727l-6.223619,-5.730906l0,-25.511773l6.223619,-5.730906l25.697524,0l6.223619,5.730906l0,10.106113l-6.223619,5.730906l-16.529397,0l0,12.940755l15.391746,0l5.621333,-5.176302l2.07454,1.910302l-6.223619,5.730906l-26.032127,0zm9.168127,-34.508679l0,16.638113l7.36127,0l0,-16.638113l-7.36127,0z"/>
    <path stroke="null" id="svg_7" d="m420.503199,103.070048l-6.223619,-5.730906l-13.852571,0l0,2.464906l4.684444,0l0,24.03283l-4.684444,4.313585l-4.684444,0l0,-25.080415l-6.223619,-5.730906l-14.187174,0l0,2.464906l5.353651,0l0,25.080415l6.223619,5.730906l14.990222,0l3.21219,-2.957887l0,19.596l-10.038095,0l0,-9.859622l-15.391746,0l0,7.209849l5.554413,5.114679l29.043555,0l6.223619,-5.730906l0,-40.917433z"/>
   </g>
  </g>
  <g stroke="null" id="logomark" transform="translate(-0.9286556839942932,-122.86556243896484) scale(5.306603908538818) ">
   <g stroke="null" id="svg_8" fill="#f74543">
    <g stroke="null" id="container" transform="translate(-17.325000762939453,-17.5) scale(0.343137264251709) ">
     <g stroke="null" id="svg_9" fill="#000">
      <circle stroke="null" id="svg_10" r="41.257137" cy="173.206787" cx="152.219069"/>
     </g>
    </g>
    <g stroke="null" id="icon" transform="translate(-10.112866401672363,-10.05794620513916) scale(0.3191421627998352) ">
     <g stroke="null" id="svg_11" fill="#fff">
      <path stroke="null" id="svg_12" d="m158.010067,154.943414c-1.447548,-6.635545 -5.860094,-20.742938 -16.515251,-15.306465c-10.668749,-5.443586 -15.079353,8.706486 -16.521076,15.330853c10.761952,2.236575 22.191853,2.248769 33.036327,-0.024388zm9.313433,4.981232a26.758765,28.007488 0 0 0 -1.689291,-0.486742a48.756447,51.031712 0 0 0 -3.37567,-0.716395c-6.756195,1.712235 -13.780347,2.562763 -20.790906,2.562763c-7.039685,0 -14.063837,-0.858658 -20.788964,-2.55565c-1.283473,0.228637 -2.447531,0.477597 -3.475669,0.745864c-0.582514,0.153441 -1.123282,0.311962 -1.621331,0.476581c-1.232018,0.407481 -4.506719,1.491727 -4.506719,4.085992c0,2.553618 2.954318,4.156107 9.878472,5.358228c5.502818,0.956209 12.797839,1.482582 20.542367,1.482582s15.038577,-0.525356 20.542367,-1.482582c6.924153,-1.202121 9.878472,-2.80461 9.878472,-5.358228c-0.001942,-2.614588 -3.336836,-3.702898 -4.593125,-4.112412zm-8.095978,16.78295c-0.506787,-0.528405 -6.484355,-0.999905 -12.920167,-0.263186c-1.283473,0.145311 -1.771814,0.528405 -4.81351,0.528405c-3.039754,0 -3.530037,-0.383093 -4.81351,-0.528405c-6.434841,-0.736718 -12.41338,-0.265219 -12.920167,0.263186c-0.252423,0.265219 -0.252423,1.324061 0,1.589279c0.253394,0.263186 1.520362,1.058842 1.773756,1.852465c0.253394,0.793623 0.760181,5.292178 2.281514,6.616238c1.567934,1.364707 7.480454,0.856626 8.611503,0.267251c2.534908,-1.322028 2.844611,-5.012733 3.293147,-6.883489c0.253394,-1.058842 1.773756,-1.058842 1.773756,-1.058842s1.521333,0 1.773756,1.058842c0.448536,1.870756 0.760181,5.561461 3.293147,6.881457c1.13299,0.591407 7.04551,1.100505 8.617328,-0.265219c1.518421,-1.324061 2.025208,-5.822615 2.278602,-6.616238c0.251452,-0.795656 1.520362,-1.589279 1.771814,-1.852465c0.254365,-0.265219 0.254365,-1.324061 -0.000971,-1.589279zm-25.134521,4.834904l-2.179574,2.281286c-0.220385,0.230669 -0.508729,0.345495 -0.797074,0.345495a1.126194,1.178749 0 0 1 -0.797074,-2.013019l2.179574,-2.281286a1.126194,1.178749 0 0 1 1.594147,1.667524zm18.577352,0l-2.179574,2.281286c-0.220385,0.230669 -0.508729,0.345495 -0.797074,0.345495a1.126194,1.178749 0 0 1 -0.797074,-2.013019l2.179574,-2.281286a1.126194,1.178749 0 0 1 1.594147,1.667524z"/>
     </g>
    </g>
   </g>
  </g>
 </g>
</svg>