<svg width="50" height="50" xmlns="http://www.w3.org/2000/svg" class="jsx-2263963463 artboard-inner">

 <g>
  <title>background</title>
  <rect fill="none" id="canvas_background" height="402" width="582" y="-1" x="-1"/>
 </g>
 <g>
  <title>Layer 1</title>
  <g id="lockup4-icon" transform="translate(24.75,25) scale(1.4285714626312256) ">
   <g id="svg_1" fill="#232323">
    <g id="container" transform="translate(-17.325000762939453,-17.5) scale(0.343137264251709) ">
     <g id="svg_2" fill="#232323">
      <circle id="svg_3" r="50" cy="51" cx="51"/>
     </g>
    </g>
    <g id="icon" transform="translate(-10.112866401672363,-10.05794620513916) scale(0.3191421627998352) ">
     <g id="svg_4" fill="#FFFFFF">
      <path id="svg_5" d="m49.011,24.046c-1.491,-6.53 -6.036,-20.413 -17.011,-15.063c-10.989,-5.357 -15.532,8.568 -17.017,15.087c11.085,2.201 22.858,2.213 34.028,-0.024zm9.593,4.902a27.562,27.562 0 0 0 -1.74,-0.479a50.22,50.22 0 0 0 -3.477,-0.705c-6.959,1.685 -14.194,2.522 -21.415,2.522c-7.251,0 -14.486,-0.845 -21.413,-2.515c-1.322,0.225 -2.521,0.47 -3.58,0.734c-0.6,0.151 -1.157,0.307 -1.67,0.469c-1.269,0.401 -4.642,1.468 -4.642,4.021c0,2.513 3.043,4.09 10.175,5.273c5.668,0.941 13.182,1.459 21.159,1.459s15.49,-0.517 21.159,-1.459c7.132,-1.183 10.175,-2.76 10.175,-5.273c-0.002,-2.573 -3.437,-3.644 -4.731,-4.047zm-8.339,16.516c-0.522,-0.52 -6.679,-0.984 -13.308,-0.259c-1.322,0.143 -1.825,0.52 -4.958,0.52c-3.131,0 -3.636,-0.377 -4.958,-0.52c-6.628,-0.725 -12.786,-0.261 -13.308,0.259c-0.26,0.261 -0.26,1.303 0,1.564c0.261,0.259 1.566,1.042 1.827,1.823c0.261,0.781 0.783,5.208 2.35,6.511c1.615,1.343 7.705,0.843 8.87,0.263c2.611,-1.301 2.93,-4.933 3.392,-6.774c0.261,-1.042 1.827,-1.042 1.827,-1.042s1.567,0 1.827,1.042c0.462,1.841 0.783,5.473 3.392,6.772c1.167,0.582 7.257,1.083 8.876,-0.261c1.564,-1.303 2.086,-5.73 2.347,-6.511c0.259,-0.783 1.566,-1.564 1.825,-1.823c0.262,-0.261 0.262,-1.303 -0.001,-1.564zm-25.889,4.758l-2.245,2.245c-0.227,0.227 -0.524,0.34 -0.821,0.34a1.16,1.16 0 0 1 -0.821,-1.981l2.245,-2.245a1.16,1.16 0 0 1 1.642,1.641zm19.135,0l-2.245,2.245c-0.227,0.227 -0.524,0.34 -0.821,0.34a1.16,1.16 0 0 1 -0.821,-1.981l2.245,-2.245a1.16,1.16 0 0 1 1.642,1.641z"/>
     </g>
    </g>
   </g>
  </g>
 </g>
</svg>