<svg width="400" height="400" xmlns="http://www.w3.org/2000/svg" class="jsx-2263963463 artboard-inner">
 <g>
  <title>background</title>
  <rect fill="#000000" id="canvas_background" height="402" width="402" y="-1" x="-1"/>
 </g>

 <g>
  <title>Layer 1</title>
  <g stroke="null" id="lockup4-icon" transform="translate(-0.688545286655426,-8.033772468566895) scale(1.0323079824447632) ">
   <g stroke="null" id="svg_1" fill="#FFFFFF">
    <path stroke="null" id="svg_2" d="m272.331415,166.600706c-6.368369,-27.022551 -25.781005,-84.473404 -72.6575,-62.333948c-46.936292,-22.168423 -66.340385,35.456235 -72.683127,62.433265c47.346328,9.108213 97.631246,9.157872 145.340627,-0.099317zm40.973687,20.285535a117.723003,114.05751 0 0 0 -7.4319,-1.982205a214.500008,207.821208 0 0 0 -14.850986,-2.917442c-29.723329,6.972894 -60.62551,10.436581 -91.467895,10.436581c-30.970521,0 -61.872703,-3.496793 -91.459352,-10.407613c-5.646535,0.931099 -10.767712,1.944962 -15.290921,3.037451c-2.562724,0.624871 -4.941786,1.270432 -7.132915,1.940823c-5.420161,1.659425 -19.826942,6.074901 -19.826942,16.639767c0,10.399337 12.997282,16.925304 43.45953,21.820813c24.2092,3.894061 56.303049,6.037657 90.374466,6.037657s66.160994,-2.139458 90.374466,-6.037657c30.462247,-4.89551 43.45953,-11.421476 43.45953,-21.820813c-0.008542,-10.64763 -14.680138,-15.079659 -20.20708,-16.74736zm-35.617594,68.346776c-2.22957,-2.151872 -28.527391,-4.072005 -56.841221,-1.071798c-5.646535,0.591765 -7.794953,2.151872 -21.176644,2.151872c-13.373149,0 -15.530108,-1.560107 -21.176644,-2.151872c-28.309559,-3.000207 -54.611651,-1.080074 -56.841221,1.071798c-1.110514,1.080074 -1.110514,5.392095 0,6.47217c1.114785,1.071798 6.68871,4.312021 7.803495,7.543968c1.114785,3.231947 3.344355,21.551829 10.037336,26.943924c6.897999,5.557624 32.909649,3.488516 37.885605,1.088351c11.152121,-5.383819 12.514636,-20.41382 14.487934,-28.032275c1.114785,-4.312021 7.803495,-4.312021 7.803495,-4.312021s6.692981,0 7.803495,4.312021c1.973298,7.618456 3.344355,22.648456 14.487934,28.023999c4.984498,2.408442 30.996148,4.481688 37.911232,-1.080074c6.680168,-5.392095 8.909738,-23.711978 10.024522,-26.943924c1.106243,-3.240223 6.68871,-6.47217 7.794953,-7.543968c1.119056,-1.080074 1.119056,-5.392095 -0.004271,-6.47217zm-110.577274,19.689632l-9.588859,9.290295c-0.969564,0.939375 -2.238112,1.406993 -3.506661,1.406993a4.9546,4.800331 0 0 1 -3.506661,-8.197806l9.588859,-9.290295a4.9546,4.800331 0 0 1 7.013322,6.790812zm81.729543,0l-9.588859,9.290295c-0.969564,0.939375 -2.238112,1.406993 -3.506661,1.406993a4.9546,4.800331 0 0 1 -3.506661,-8.197806l9.588859,-9.290295a4.9546,4.800331 0 0 1 7.013322,6.790812z"/>
   </g>
  </g>
 </g>
</svg>