<svg width="402" height="400" xmlns="http://www.w3.org/2000/svg">
 <!-- Created with Method Draw - http://github.com/duopixel/Method-Draw/ -->

 <g>
  <title>background</title>
  <rect fill="none" id="canvas_background" height="402" width="404" y="-1" x="-1"/>
  <g display="none" id="canvasGrid">
   <rect fill="url(#gridpattern)" stroke-width="0" y="0" x="0" height="100%" width="100%" id="svg_2"/>
  </g>
 </g>
 <g>
  <title>Layer 1</title>
  <ellipse stroke="#000" ry="196.5" rx="199.5" id="svg_1" cy="199.9375" cx="201" stroke-width="1.5" fill="#000"/>
  <g stroke="null" fill="#fff" id="svg_1">
   <path stroke="null" d="m272.525621,160.114266c-6.225616,-28.640388 -25.203096,-89.530813 -71.028818,-66.065875c-45.884165,-23.495642 -64.853299,37.579 -71.053867,66.171139c46.285021,9.653516 95.442756,9.706152 142.082685,-0.105264zm40.055227,21.50003a115.084132,120.886114 0 0 0 -7.265309,-2.100884a209.69179,220.263434 0 0 0 -14.518084,-3.092103c-29.057059,7.390355 -59.26654,11.061411 -89.417558,11.061411c-30.27629,0 -60.485771,-3.706139 -89.409212,-11.030715c-5.519959,0.986841 -10.526344,2.061407 -14.948157,3.219306c-2.505281,0.662277 -4.831015,1.346494 -6.973023,2.057021c-5.298661,1.758768 -19.382504,6.438605 -19.382504,17.635983c0,11.021942 12.705935,17.938623 42.485343,23.127224c23.66653,4.127193 55.040967,6.399128 88.348638,6.399128s64.677939,-2.267548 88.348638,-6.399128c29.779408,-5.188601 42.485343,-12.105282 42.485343,-23.127224c-0.008346,-11.285105 -14.351061,-15.982479 -19.754114,-17.75002zm-34.819198,72.438685c-2.179591,-2.280707 -27.887915,-4.315797 -55.567066,-1.135967c-5.519969,0.627195 -7.620227,2.280707 -20.70195,2.280707c-13.073377,0 -15.18199,-1.653512 -20.70195,-2.280707c-27.674983,-3.179829 -53.387485,-1.14474 -55.567076,1.135967c-1.085622,1.14474 -1.085622,5.714919 0,6.859659c1.0898,1.135967 6.538772,4.570179 7.628573,7.995618c1.0898,3.425447 3.269391,22.842138 9.812342,28.557056c6.743369,5.890355 32.171951,3.697374 37.036361,1.153513c10.902132,-5.706146 12.234111,-21.635997 14.163177,-29.710569c1.08979,-4.570179 7.628573,-4.570179 7.628573,-4.570179s6.542951,0 7.628573,4.570179c1.929066,8.074572 3.269381,24.004423 14.163167,29.701796c4.872766,2.552635 30.301339,4.750002 37.06142,-1.14474c6.530426,-5.714919 8.710017,-25.131609 9.799817,-28.557056c1.081444,-3.434212 6.538772,-6.859651 7.620217,-7.995618c1.093969,-1.14474 1.093969,-5.714919 -0.004178,-6.859659zm-108.098584,20.868449l-9.373913,9.846498c-0.947826,0.995621 -2.187937,1.491235 -3.428058,1.491235a4.84354,5.087724 0 0 1 -3.428049,-8.688607l9.373913,-9.846506a4.84354,5.087724 0 0 1 6.856107,7.197381zm79.897502,0l-9.373913,9.846498c-0.947835,0.995621 -2.187947,1.491235 -3.428058,1.491235a4.84354,5.087724 0 0 1 -3.428058,-8.688607l9.373923,-9.846506a4.84354,5.087724 0 0 1 6.856107,7.197381z" id="svg_2"/>
  </g>
 </g>
</svg>