<svg width="371.4622641509433" height="100" xmlns="http://www.w3.org/2000/svg" class="jsx-2263963463 artboard-inner">

 <g>
  <title>background</title>
  <rect fill="none" id="canvas_background" height="82" width="82" y="-1" x="-1"/>
 </g>
 <g>
  <title>Layer 1</title>
  <g id="svg_1" fill="#232323" transform="translate(-190.4481201171875,76.41509246826172) scale(1.3102725744247437) ">
   <g id="line1">
    <path id="svg_2" d="m145.555202,-18.0432l0,18l3.24,0l0,-5.76l5.04,5.04l30.456,0l6.696,-6.696l0,-9.936l-32.328,-38.088l21.024,0l6.624,6.624l0,7.776l3.24,0l0,-18l-3.24,0l0,5.76l-5.04,-5.04l-28.296,0l-6.696,6.696l0,9.936l32.328,38.088l-23.184,0l-6.624,-6.624l0,-7.776l-3.24,0z"/>
    <path id="svg_3" d="m238.471202,-36.5472l-7.416,-7.416l-26.496,0l-7.416,7.416l0,28.368l7.416,7.416l26.496,0l7.416,-7.416l0,-28.368zm-24.048,-4.536l6.768,0l0,37.44l-6.768,0l0,-37.44z"/>
    <path id="svg_4" d="m289.267202,-43.9632l-9.864,0l-5.04,5.04l-5.112,-5.04l-17.568,0l-6.696,6.696l0,25.488l6.696,6.696l17.568,0l3.456,-3.456l0,22.896l-11.88,0l0,-11.52l-16.2,0l0,8.424l5.976,5.976l31.968,0l6.696,-6.696l0,-54.504zm-16.56,30.96l-5.04,5.04l-6.48,0l0,-33.12l6.48,0l5.04,5.04l0,23.04z"/>
    <path id="svg_5" d="m333.583202,-38.7072l-5.256,-5.256l-9.288,0l-5.04,5.04l-5.112,-5.04l-15.624,0l0,2.88l5.76,0l0,33.624l6.696,6.696l15.624,0l0,-2.88l-5.76,0l0,-32.4l5.04,-5.04l6.12,0l4.608,4.608l2.232,-2.232z"/>
    <path id="svg_6" d="m342.835202,-0.7632l-6.696,-6.696l0,-29.808l6.696,-6.696l27.648,0l6.696,6.696l0,11.808l-6.696,6.696l-17.784,0l0,15.12l16.56,0l6.048,-6.048l2.232,2.232l-6.696,6.696l-28.008,0zm9.864,-40.32l0,19.44l7.92,0l0,-19.44l-7.92,0z"/>
    <path id="svg_7" d="m429.055202,-37.2672l-6.696,-6.696l-14.904,0l0,2.88l5.04,0l0,28.08l-5.04,5.04l-5.04,0l0,-29.304l-6.696,-6.696l-15.264,0l0,2.88l5.76,0l0,29.304l6.696,6.696l16.128,0l3.456,-3.456l0,22.896l-10.8,0l0,-11.52l-16.56,0l0,8.424l5.976,5.976l31.248,0l6.696,-6.696l0,-47.808z"/>
   </g>
  </g>
 </g>
</svg>