<svg width="402" height="400" xmlns="http://www.w3.org/2000/svg">
 <!-- Created with Method Draw - http://github.com/duopixel/Method-Draw/ -->

 <g>
  <title>background</title>
  <rect x="-1" y="-1" width="404" height="402" id="canvas_background" fill="none"/>
  <g id="canvasGrid" display="none">
   <rect id="svg_2" width="100%" height="100%" x="0" y="0" stroke-width="0" fill="url(#gridpattern)"/>
  </g>
 </g>
 <g>
  <title>Layer 1</title>
  <ellipse fill="#000" stroke-width="1.5" cx="201" cy="199.9375" id="svg_1" rx="199.5" ry="196.5" stroke="#000"/>
  <g stroke="null" id="svg_1" fill="#fff">
   <path stroke="null" id="svg_2" d="m273.06848,153.57494c-6.273201,-35.650998 -25.395733,-111.44622 -71.571706,-82.237516c-46.234876,-29.246921 -65.348994,46.777603 -71.596951,82.368545c46.638785,12.016515 96.172245,12.08203 143.168657,-0.13103zm40.361377,26.762816a115.963751,150.476692 0 0 0 -7.320838,-2.615134a211.294521,274.179648 0 0 0 -14.629053,-3.848997c-29.279143,9.199377 -59.719523,13.769038 -90.100999,13.769038c-30.507698,0 -60.948077,-4.613337 -90.092584,-13.730821c-5.562154,1.228403 -10.6068,2.565998 -15.062413,4.007325c-2.524427,0.824395 -4.867936,1.676088 -7.026321,2.560539c-5.339163,2.189288 -19.530648,8.01465 -19.530648,21.952934c0,13.719902 12.803051,22.329645 42.810071,28.788317c23.847418,5.137456 55.461656,7.965514 89.02391,7.965514s65.172284,-2.822598 89.02391,-7.965514c30.00702,-6.458672 42.810071,-15.068416 42.810071,-28.788317c-0.008415,-14.047476 -14.460758,-19.894676 -19.905105,-22.094883zm-35.085325,90.170272c-2.196251,-2.838977 -28.101077,-5.372218 -55.991786,-1.414029c-5.562154,0.780719 -7.678465,2.838977 -20.86018,2.838977c-13.1733,0 -15.298026,-2.058258 -20.86018,-2.838977c-27.886501,-3.958189 -53.795534,-1.424948 -55.991786,1.414029c-1.093918,1.424948 -1.093918,7.113821 0,8.538769c1.098126,1.414029 6.588754,5.688873 7.68688,9.952798c1.098126,4.263925 3.294377,28.433445 9.887338,35.547266c6.794915,7.332204 32.417847,4.602418 37.319442,1.435867c10.985464,-7.102902 12.327617,-26.932063 14.271426,-36.983133c1.098126,-5.688873 7.68688,-5.688873 7.68688,-5.688873s6.592961,0 7.68688,5.688873c1.943809,10.05107 3.294377,29.880231 14.271426,36.972214c4.91001,3.17747 30.532942,5.912715 37.344687,-1.424948c6.580339,-7.113821 8.77659,-31.283341 9.874716,-35.547266c1.089711,-4.274844 6.588754,-8.538769 7.678465,-9.952798c1.102333,-1.424948 1.102333,-7.113821 -0.004207,-8.538769zm-108.924808,25.976638l-9.445563,12.256737c-0.955075,1.239323 -2.204666,1.856254 -3.454257,1.856254a4.880558,6.333102 0 0 1 -3.454257,-10.81541l9.445563,-12.256737a4.880558,6.333102 0 0 1 6.908515,8.959156zm80.508177,0l-9.445563,12.256737c-0.955075,1.239323 -2.204666,1.856254 -3.454257,1.856254a4.880558,6.333102 0 0 1 -3.454257,-10.81541l9.445563,-12.256737a4.880558,6.333102 0 0 1 6.908515,8.959156z"/>
  </g>
 </g>
</svg>