<svg width="1280" height="640" xmlns="http://www.w3.org/2000/svg">

 <g>
  <title>background</title>
  <rect fill="none" id="canvas_background" height="642" width="1282" y="-1" x="-1"/>
 </g>
 <g>
  <title>Layer 1</title>
  <rect id="svg_1" fill="#232323" height="640" width="1280" y="0" x="0"/>
  <g id="svg_2" fill="white" transform="translate(-190.4481201171875,76.41509246826172) scale(1.3102725744247437) ">
   <g id="line1">
    <path id="svg_3" transform="translate(0,0) scale(1) " d="m494.90391,239.345937l0,18l3.24,0l0,-5.76l5.04,5.04l30.456,0l6.696,-6.696l0,-9.936l-32.328,-38.088l21.024,0l6.624,6.624l0,7.776l3.24,0l0,-18l-3.24,0l0,5.76l-5.04,-5.04l-28.296,0l-6.696,6.696l0,9.936l32.328,38.088l-23.184,0l-6.624,-6.624l0,-7.776l-3.24,0z"/>
    <path id="svg_4" transform="translate(0,0) scale(1) " d="m587.81991,220.841937l-7.416,-7.416l-26.496,0l-7.416,7.416l0,28.368l7.416,7.416l26.496,0l7.416,-7.416l0,-28.368zm-24.048,-4.536l6.768,0l0,37.44l-6.768,0l0,-37.44z"/>
    <path id="svg_5" transform="translate(0,0) scale(1) " d="m638.61591,213.425937l-9.864,0l-5.04,5.04l-5.112,-5.04l-17.568,0l-6.696,6.696l0,25.488l6.696,6.696l17.568,0l3.456,-3.456l0,22.896l-11.88,0l0,-11.52l-16.2,0l0,8.424l5.976,5.976l31.968,0l6.696,-6.696l0,-54.504zm-16.56,30.96l-5.04,5.04l-6.48,0l0,-33.12l6.48,0l5.04,5.04l0,23.04z"/>
    <path id="svg_6" transform="translate(0,0) scale(1) " d="m682.93191,218.681937l-5.256,-5.256l-9.288,0l-5.04,5.04l-5.112,-5.04l-15.624,0l0,2.88l5.76,0l0,33.624l6.696,6.696l15.624,0l0,-2.88l-5.76,0l0,-32.4l5.04,-5.04l6.12,0l4.608,4.608l2.232,-2.232z"/>
    <path id="svg_7" transform="translate(0,0) scale(1) " d="m692.18391,256.625937l-6.696,-6.696l0,-29.808l6.696,-6.696l27.648,0l6.696,6.696l0,11.808l-6.696,6.696l-17.784,0l0,15.12l16.56,0l6.048,-6.048l2.232,2.232l-6.696,6.696l-28.008,0zm9.864,-40.32l0,19.44l7.92,0l0,-19.44l-7.92,0z"/>
    <path id="svg_8" transform="translate(0,0) scale(1) " d="m778.40391,220.121937l-6.696,-6.696l-14.904,0l0,2.88l5.04,0l0,28.08l-5.04,5.04l-5.04,0l0,-29.304l-6.696,-6.696l-15.264,0l0,2.88l5.76,0l0,29.304l6.696,6.696l16.128,0l3.456,-3.456l0,22.896l-10.8,0l0,-11.52l-16.56,0l0,8.424l5.976,5.976l31.248,0l6.696,-6.696l0,-47.808z"/>
   </g>
  </g>
  <g stroke="null" id="logomark" transform="translate(-94.84236145019531,-196.61358642578125) scale(2.963731527328491) ">
   <g stroke="null" id="svg_9" transform="translate(0,0) scale(1) " fill="white">
    <path stroke="null" id="svg_10" d="m267.24103,139.566759c-1.491,-6.294065 -6.036,-19.675458 -17.011,-14.518759c-10.989,-5.163446 -15.532,8.25843 -17.017,14.541892c11.085,2.121476 22.858,2.133042 34.028,-0.023133zm9.593,4.724886a27.562,26.566158 0 0 0 -1.74,-0.461693a50.22,48.405502 0 0 0 -3.477,-0.679528c-6.959,1.624119 -14.194,2.430878 -21.415,2.430878c-7.251,0 -14.486,-0.814469 -21.413,-2.424131c-1.322,0.216871 -2.521,0.453018 -3.58,0.70748c-0.6,0.145544 -1.157,0.295908 -1.67,0.452055c-1.269,0.386511 -4.642,1.41496 -4.642,3.875717c0,2.422203 3.043,3.942224 10.175,5.082481c5.668,0.907001 13.182,1.406285 21.159,1.406285s15.49,-0.49832 21.159,-1.406285c7.132,-1.140257 10.175,-2.660278 10.175,-5.082481c-0.002,-2.480035 -3.437,-3.512339 -4.731,-3.900778zm-8.339,15.919261c-0.522,-0.501212 -6.679,-0.948447 -13.308,-0.249642c-1.322,0.137833 -1.825,0.501212 -4.958,0.501212c-3.131,0 -3.636,-0.363379 -4.958,-0.501212c-6.628,-0.698805 -12.786,-0.25157 -13.308,0.249642c-0.26,0.25157 -0.26,1.255921 0,1.507491c0.261,0.249642 1.566,1.004352 1.827,1.757133c0.261,0.752782 0.783,5.01983 2.35,6.275751c1.615,1.294476 7.705,0.812542 8.87,0.253498c2.611,-1.253994 2.93,-4.754766 3.392,-6.529249c0.261,-1.004352 1.827,-1.004352 1.827,-1.004352s1.567,0 1.827,1.004352c0.462,1.774483 0.783,5.275255 3.392,6.527321c1.167,0.560972 7.257,1.04387 8.876,-0.25157c1.564,-1.255921 2.086,-5.522969 2.347,-6.275751c0.259,-0.754709 1.566,-1.507491 1.825,-1.757133c0.262,-0.25157 0.262,-1.255921 -0.001,-1.507491zm-25.889,4.586089l-2.245,2.163886c-0.227,0.218798 -0.524,0.327715 -0.821,0.327715a1.16,1.118088 0 0 1 -0.821,-1.909425l2.245,-2.163886a1.16,1.118088 0 0 1 1.642,1.581709zm19.135,0l-2.245,2.163886c-0.227,0.218798 -0.524,0.327715 -0.821,0.327715a1.16,1.118088 0 0 1 -0.821,-1.909425l2.245,-2.163886a1.16,1.118088 0 0 1 1.642,1.581709z"/>
   </g>
  </g>
 </g>
</svg>