<svg width="371.4622641509433" height="315.7311320754717" xmlns="http://www.w3.org/2000/svg" xmlns:svg="http://www.w3.org/2000/svg" class="jsx-2263963463 artboard-inner">
 <g>
  <title>background</title>
  <rect x="-1" y="-1" width="582" height="402" id="canvas_background" fill="none"/>
 </g>
 <g>
  <title>Layer 1</title>
  <g transform="translate(-190.4481201171875,76.41509246826172) scale(1.3102725744247437) " fill="#000" id="svg_1" stroke="null">
   <g id="line1" stroke="null">
    <path d="m157.0032,119.52329l0,15.40566l3.01143,0l0,-4.92981l4.68444,4.31359l28.30743,0l6.22362,-5.73091l0,-8.50392l-30.04736,-32.59838l19.54082,0l6.1567,5.66928l0,6.65525l3.01143,0l0,-15.40566l-3.01143,0l0,4.92981l-4.68444,-4.31359l-26.29981,0l-6.22362,5.73091l0,8.50392l30.04736,32.59838l-21.54844,0l-6.1567,-5.66928l0,-6.65525l-3.01143,0z" id="svg_2" stroke="null"/>
    <path d="m243.36428,103.68627l-6.89282,-6.34713l-24.6268,0l-6.89282,6.34713l0,24.27932l6.89282,6.34714l24.6268,0l6.89282,-6.34714l0,-24.27932zm-22.35149,-3.88222l6.29054,0l0,32.04377l-6.29054,0l0,-32.04377z" id="svg_3" stroke="null"/>
    <path d="m290.57679,97.33914l-9.16813,0l-4.68444,4.31359l-4.75137,-4.31359l-16.32863,0l-6.22362,5.73091l0,21.81441l6.22362,5.73091l16.32863,0l3.21219,-2.95789l0,19.596l-11.0419,0l0,-9.85962l-15.05715,0l0,7.20985l5.55442,5.11468l29.71276,0l6.22362,-5.73091l0,-46.64834zm-15.39175,26.49774l-4.68444,4.31358l-6.02286,0l0,-28.34641l6.02286,0l4.68444,4.31358l0,19.71925z" id="svg_4" stroke="null"/>
    <path d="m331.76644,101.8376l-4.88521,-4.49846l-8.63276,0l-4.68444,4.31359l-4.75137,-4.31359l-14.52178,0l0,2.46491l5.35365,0l0,28.77777l6.22362,5.73091l14.52178,0l0,-2.46491l-5.35365,0l0,-27.73019l4.68444,-4.31358l5.68826,0l4.28292,3.94385l2.07454,-1.9103z" id="svg_5" stroke="null"/>
    <path d="m340.36574,134.31273l-6.22362,-5.73091l0,-25.51177l6.22362,-5.73091l25.69752,0l6.22362,5.73091l0,10.10611l-6.22362,5.73091l-16.52939,0l0,12.94075l15.39174,0l5.62133,-5.1763l2.07455,1.9103l-6.22362,5.73091l-26.03213,0zm9.16813,-34.50868l0,16.63811l7.36127,0l0,-16.63811l-7.36127,0z" id="svg_6" stroke="null"/>
    <path d="m420.5032,103.07005l-6.22362,-5.73091l-13.85257,0l0,2.46491l4.68444,0l0,24.03283l-4.68444,4.31358l-4.68444,0l0,-25.08041l-6.22362,-5.73091l-14.18718,0l0,2.46491l5.35365,0l0,25.08041l6.22362,5.73091l14.99022,0l3.21219,-2.95789l0,19.596l-10.03809,0l0,-9.85962l-15.39175,0l0,7.20985l5.55442,5.11468l29.04355,0l6.22362,-5.73091l0,-40.91743z" id="svg_7" stroke="null"/>
   </g>
  </g>
  <g transform="translate(-0.9286556839942932,-122.86556243896484) scale(5.306603908538818) " id="logomark" stroke="null">
   <g fill="#f74543" id="svg_8" stroke="null">
    <g transform="translate(-17.325000762939453,-17.5) scale(0.343137264251709) " id="container" stroke="null">
     <g fill="#000" id="svg_9" stroke="null">
      <circle cx="152.76825" cy="172.657606" r="41.257137" id="svg_10" stroke="null"/>
     </g>
    </g>
    <g transform="translate(-10.112866401672363,-10.05794620513916) scale(0.3191421627998352) " id="icon" stroke="null">
     <g fill="#fff" id="svg_11" stroke="null">
      <path d="m158.600542,154.352938c-1.44755,-6.63554 -5.8601,-20.74293 -16.51525,-15.30646c-10.66875,-5.44359 -15.07936,8.70648 -16.52108,15.33085c10.76195,2.23658 22.19185,2.24877 33.03633,-0.02439zm9.31343,4.98124a26.75877,28.00749 0 0 0 -1.68929,-0.48675a48.75645,51.03171 0 0 0 -3.37567,-0.71639c-6.7562,1.71223 -13.78035,2.56276 -20.79091,2.56276c-7.03968,0 -14.06383,-0.85866 -20.78896,-2.55565c-1.28347,0.22864 -2.44753,0.4776 -3.47567,0.74587c-0.58251,0.15344 -1.12328,0.31196 -1.62133,0.47658c-1.23202,0.40748 -4.50672,1.49172 -4.50672,4.08599c0,2.55362 2.95432,4.15611 9.87847,5.35823c5.50282,0.95621 12.79784,1.48258 20.54237,1.48258s15.03858,-0.52536 20.54237,-1.48258c6.92415,-1.20212 9.87847,-2.80461 9.87847,-5.35823c-0.00194,-2.61459 -3.33684,-3.7029 -4.59313,-4.11241zm-8.09598,16.78295c-0.50679,-0.52841 -6.48435,-0.99991 -12.92016,-0.26319c-1.28348,0.14531 -1.77182,0.5284 -4.81352,0.5284c-3.03975,0 -3.53003,-0.38309 -4.81351,-0.5284c-6.43484,-0.73672 -12.41338,-0.26522 -12.92016,0.26319c-0.25243,0.26521 -0.25243,1.32406 0,1.58928c0.25339,0.26318 1.52036,1.05884 1.77375,1.85246c0.2534,0.79362 0.76019,5.29218 2.28152,6.61624c1.56793,1.36471 7.48045,0.85662 8.6115,0.26725c2.53491,-1.32203 2.84461,-5.01273 3.29315,-6.88349c0.25339,-1.05884 1.77375,-1.05884 1.77375,-1.05884s1.52134,0 1.77376,1.05884c0.44854,1.87076 0.76018,5.56146 3.29315,6.88146c1.13299,0.5914 7.04551,1.1005 8.61732,-0.26522c1.51843,-1.32406 2.02521,-5.82262 2.27861,-6.61624c0.25145,-0.79566 1.52036,-1.58928 1.77181,-1.85246c0.25437,-0.26522 0.25437,-1.32407 -0.00097,-1.58928zm-25.13452,4.8349l-2.17957,2.28129c-0.22039,0.23066 -0.50873,0.34549 -0.79708,0.34549a1.12619,1.17875 0 0 1 -0.79707,-2.01302l2.17957,-2.28128a1.12619,1.17875 0 0 1 1.59415,1.66752zm18.57735,0l-2.17957,2.28129c-0.22039,0.23066 -0.50873,0.34549 -0.79708,0.34549a1.12619,1.17875 0 0 1 -0.79707,-2.01302l2.17957,-2.28128a1.12619,1.17875 0 0 1 1.59415,1.66752z" id="svg_12" stroke="null"/>
     </g>
    </g>
   </g>
  </g>
  <text font-weight="bold" xml:space="preserve" text-anchor="middle" font-family="Fantasy" font-size="24" id="svg_13" y="275.26886" x="248.731102" stroke-width="0" stroke="null" fill="#000000">.github.io</text>
 </g>
</svg>